<svg width="737" height="88" viewBox="0 0 737 88" fill="none" xmlns="http://www.w3.org/2000/svg">
<path d="M134.777 68.993C121.471 68.993 112.005 58.732 112.005 44.499C112.005 30.4646 120.743 19.7402 134.711 19.7402C146.362 19.7402 153.247 26.6912 154.24 35.6944H144.707C143.847 30.928 140.272 27.8166 134.711 27.8166C125.973 27.8166 121.802 35.0986 121.802 44.499C121.802 54.1642 126.833 61.1152 134.777 61.1152C140.404 61.1152 144.376 57.739 144.972 52.774H154.373C154.108 56.9446 152.32 60.9828 149.143 63.9618C145.899 67.007 141.331 68.993 134.777 68.993ZM159.311 68V20.667H168.91V39.203H187.512V20.667H197.111V68H187.512V47.147H168.91V68H159.311ZM200.928 68L217.412 20.667H227.342L244.024 68H234.028L230.851 57.9376H213.771L210.66 68H200.928ZM220.259 36.9522L216.022 50.5894H228.534L224.297 36.9522C223.502 34.4366 222.377 29.6702 222.377 29.6702H222.245C222.245 29.6702 221.053 34.4366 220.259 36.9522ZM248.008 68V20.667H269.722C278.858 20.667 284.948 25.963 284.948 33.8408C284.948 39.4016 282.366 43.6384 276.276 45.2934V45.492C280.645 46.7498 282.896 49.2654 283.492 55.0248C284.154 61.711 283.889 66.8084 285.544 67.5366V68H276.342C275.15 67.4704 275.018 62.1744 274.621 57.077C274.224 51.9134 271.311 49.0006 265.353 49.0006H257.607V68H248.008ZM257.607 28.4124V41.5862H267.802C273.032 41.5862 275.614 38.872 275.614 35.0986C275.614 31.259 273.164 28.4124 268.067 28.4124H257.607ZM288.033 28.7434V20.667H326.098V28.7434H311.865V68H302.266V28.7434H288.033ZM365.906 34.9662C364.516 28.2138 359.087 25.0362 351.938 25.0362C340.684 25.0362 335.917 35.4296 335.917 44.3004C335.917 53.2374 339.36 63.6308 351.276 63.6308C359.749 63.6308 366.7 57.5404 366.7 48.6696H351.276V43.3736H372.658V68H368.686L366.7 61.3138H366.568C362.993 66.2788 358.558 68.9268 351.276 68.9268C337.506 68.9268 329.959 58.5996 329.959 44.3004C329.959 30.0674 338.83 19.7402 351.938 19.7402C363.92 19.7402 370.209 25.963 371.864 34.9662H365.906ZM416.363 52.2444C416.363 61.9096 410.868 68.9268 398.224 68.9268C385.58 68.9268 380.085 61.9096 380.085 52.2444V20.667H386.043V52.2444C386.043 59.9236 390.015 63.6308 398.224 63.6308C406.433 63.6308 410.405 59.9236 410.405 52.2444V20.667H416.363V52.2444ZM430.411 40.858H454.706V46.154H430.411V62.704H458.678V68H424.453V20.667H457.884V25.963H430.411V40.858ZM482 40.3946C492.659 43.0426 499.61 44.83 499.61 55.6206C499.61 62.5054 494.512 68.9268 482.53 68.9268C471.342 68.9268 462.67 62.9688 462.008 52.112H467.966C468.628 58.5996 472.6 63.6308 482.53 63.6308C490.739 63.6308 493.652 59.8574 493.652 55.6206C493.652 49.133 490.143 47.9414 479.551 45.492C472.468 43.837 463.994 41.3876 463.994 32.1858C463.994 24.7052 469.753 19.7402 480.213 19.7402C490.275 19.7402 497.293 24.9038 498.087 34.7014H492.129C491.268 28.3462 487.694 25.0362 480.213 25.0362C473.527 25.0362 469.952 27.618 469.952 31.5238C469.952 37.8128 475.049 38.6734 482 40.3946ZM523.44 40.3946C534.098 43.0426 541.049 44.83 541.049 55.6206C541.049 62.5054 535.952 68.9268 523.97 68.9268C512.782 68.9268 504.11 62.9688 503.448 52.112H509.406C510.068 58.5996 514.04 63.6308 523.97 63.6308C532.179 63.6308 535.091 59.8574 535.091 55.6206C535.091 49.133 531.583 47.9414 520.991 45.492C513.907 43.837 505.434 41.3876 505.434 32.1858C505.434 24.7052 511.193 19.7402 521.653 19.7402C531.715 19.7402 538.732 24.9038 539.527 34.7014H533.569C532.708 28.3462 529.133 25.0362 521.653 25.0362C514.967 25.0362 511.392 27.618 511.392 31.5238C511.392 37.8128 516.489 38.6734 523.44 40.3946ZM553.824 40.858H578.12V46.154H553.824V62.704H582.092V68H547.866V20.667H581.297V25.963H553.824V40.858ZM589.047 68V20.667H608.245C617.58 20.667 623.869 25.6982 623.869 34.1056C623.869 40.9242 620.625 44.6976 615.395 46.0216V46.154C625.921 48.2062 622.081 66.8084 624.531 67.6028V68H618.109C616.057 66.014 620.559 48.8682 608.576 48.8682H595.005V68H589.047ZM595.005 25.963V43.5722H606.855C611.754 43.5722 617.911 42.9764 617.911 34.7676C617.911 26.5588 611.754 25.963 606.855 25.963H595.005Z" fill="#273540"/>
<path d="M47.3423 40.5582C47.751 43.9091 49.549 47.6686 54.7796 47.6686C60.1737 47.6686 63.1976 43.0918 63.1976 35.2459C63.1976 27.4 60.2554 22.8232 54.7796 22.8232C49.549 22.8232 47.751 26.3375 47.3423 30.097L34.5109 30.097C35.1648 20.2078 42.6838 13.0157 54.6979 13.0157C67.9379 13.0158 76.2742 22.1693 76.2742 35.2459C76.2742 48.2407 67.9379 57.476 55.0248 57.476C42.8472 57.476 35.5734 50.2839 34.5109 40.5582L47.3423 40.5582Z" fill="#FF9D51"/>
<mask id="mask0_5_69" style="mask-type:alpha" maskUnits="userSpaceOnUse" x="34" y="29" width="43" height="46">
<path d="M47.3423 57.2348C47.751 60.5857 49.549 64.3452 54.7796 64.3452C60.1737 64.3452 63.1976 59.7684 63.1976 51.9225C63.1976 44.0766 60.2554 39.4998 54.7796 39.4998C49.549 39.4998 47.751 43.0141 47.3423 46.7736L34.5109 46.7736C35.1648 36.8845 42.6838 29.6924 54.6979 29.6924C67.9379 29.6924 76.2742 38.8459 76.2742 51.9225C76.2742 64.9173 67.9379 74.1526 55.0248 74.1526C42.8472 74.1526 35.5734 66.9605 34.5109 57.2348L47.3423 57.2348Z" fill="white"/>
</mask>
<g mask="url(#mask0_5_69)">
<path d="M35.9739 61.221H75.448V117.065H35.9739V61.221Z" fill="#FF9D51"/>
</g>
</svg>
