<svg width="410" height="410" viewBox="0 0 410 410" fill="none" xmlns="http://www.w3.org/2000/svg">
<path d="M174.671 194.543C176.532 209.808 184.723 226.935 208.551 226.935C233.124 226.935 246.9 206.085 246.9 170.342C246.9 134.6 233.497 113.75 208.551 113.75C184.723 113.75 176.532 129.76 174.671 146.886L116.217 146.886C119.195 101.836 153.448 69.0718 208.179 69.0718C268.495 69.0718 306.471 110.771 306.471 170.342C306.471 229.541 268.495 271.613 209.668 271.613C154.193 271.613 121.057 238.849 116.217 194.543L174.671 194.543Z" fill="#FF9D51"/>
<mask id="favicon-mask" style="mask-type:alpha" maskUnits="userSpaceOnUse" x="116" y="145" width="191" height="203">
<path d="M174.671 270.736C176.532 286.001 184.723 303.128 208.551 303.128C233.124 303.128 246.9 282.278 246.9 246.536C246.9 210.793 233.497 189.943 208.551 189.943C184.723 189.943 176.532 205.953 174.671 223.08L116.217 223.08C119.195 178.029 153.448 145.265 208.179 145.265C268.495 145.265 306.471 186.965 306.471 246.536C306.471 305.734 268.495 347.806 209.668 347.806C154.193 347.806 121.057 315.042 116.217 270.736L174.671 270.736Z" fill="white"/>
</mask>
<g mask="url(#favicon-mask)">
<path d="M122.881 288.007H302.708V542.408H122.881V288.007Z" fill="#FF9D51"/>
</g>
</svg>
