<svg width="737" height="88" viewBox="0 0 737 88" fill="none" xmlns="http://www.w3.org/2000/svg">
<path d="M155.368 68.993C142.062 68.993 132.595 58.732 132.595 44.499C132.595 30.4646 141.333 19.7402 155.302 19.7402C166.953 19.7402 173.838 26.6912 174.831 35.6944H165.298C164.437 30.928 160.862 27.8166 155.302 27.8166C146.563 27.8166 142.393 35.0986 142.393 44.499C142.393 54.1642 147.424 61.1152 155.368 61.1152C160.995 61.1152 164.967 57.739 165.563 52.774H174.963C174.698 56.9446 172.911 60.9828 169.733 63.9618C166.489 67.007 161.922 68.993 155.368 68.993ZM179.901 68V20.667H189.5V39.203H208.102V20.667H217.701V68H208.102V47.147H189.5V68H179.901ZM221.519 68L238.003 20.667H247.933L264.615 68H254.619L251.441 57.9376H234.362L231.25 68H221.519ZM240.849 36.9522L236.612 50.5894H249.124L244.887 36.9522C244.093 34.4366 242.968 29.6702 242.968 29.6702H242.835C242.835 29.6702 241.644 34.4366 240.849 36.9522ZM268.599 68V20.667H290.312C299.448 20.667 305.538 25.963 305.538 33.8408C305.538 39.4016 302.957 43.6384 296.866 45.2934V45.492C301.235 46.7498 303.486 49.2654 304.082 55.0248C304.744 61.711 304.479 66.8084 306.134 67.5366V68H296.932C295.741 67.4704 295.608 62.1744 295.211 57.077C294.814 51.9134 291.901 49.0006 285.943 49.0006H278.198V68H268.599ZM278.198 28.4124V41.5862H288.393C293.622 41.5862 296.204 38.872 296.204 35.0986C296.204 31.259 293.755 28.4124 288.657 28.4124H278.198ZM308.623 28.7434V20.667H346.688V28.7434H332.455V68H322.856V28.7434H308.623ZM386.496 34.9662C385.106 28.2138 379.678 25.0362 372.528 25.0362C361.274 25.0362 356.508 35.4296 356.508 44.3004C356.508 53.2374 359.95 63.6308 371.866 63.6308C380.34 63.6308 387.291 57.5404 387.291 48.6696H371.866V43.3736H393.249V68H389.277L387.291 61.3138H387.158C383.584 66.2788 379.148 68.9268 371.866 68.9268C358.097 68.9268 350.55 58.5996 350.55 44.3004C350.55 30.0674 359.421 19.7402 372.528 19.7402C384.51 19.7402 390.799 25.963 392.454 34.9662H386.496ZM436.953 52.2444C436.953 61.9096 431.459 68.9268 418.814 68.9268C406.17 68.9268 400.676 61.9096 400.676 52.2444V20.667H406.634V52.2444C406.634 59.9236 410.606 63.6308 418.814 63.6308C427.023 63.6308 430.995 59.9236 430.995 52.2444V20.667H436.953V52.2444ZM451.001 40.858H475.296V46.154H451.001V62.704H479.268V68H445.043V20.667H478.474V25.963H451.001V40.858ZM502.591 40.3946C513.249 43.0426 520.2 44.83 520.2 55.6206C520.2 62.5054 515.103 68.9268 503.121 68.9268C491.933 68.9268 483.261 62.9688 482.599 52.112H488.557C489.219 58.5996 493.191 63.6308 503.121 63.6308C511.329 63.6308 514.242 59.8574 514.242 55.6206C514.242 49.133 510.734 47.9414 500.142 45.492C493.058 43.837 484.585 41.3876 484.585 32.1858C484.585 24.7052 490.344 19.7402 500.804 19.7402C510.866 19.7402 517.883 24.9038 518.678 34.7014H512.72C511.859 28.3462 508.284 25.0362 500.804 25.0362C494.117 25.0362 490.543 27.618 490.543 31.5238C490.543 37.8128 495.64 38.6734 502.591 40.3946ZM544.031 40.3946C554.689 43.0426 561.64 44.83 561.64 55.6206C561.64 62.5054 556.542 68.9268 544.56 68.9268C533.372 68.9268 524.7 62.9688 524.038 52.112H529.996C530.658 58.5996 534.63 63.6308 544.56 63.6308C552.769 63.6308 555.682 59.8574 555.682 55.6206C555.682 49.133 552.173 47.9414 541.581 45.492C534.498 43.837 526.024 41.3876 526.024 32.1858C526.024 24.7052 531.784 19.7402 542.243 19.7402C552.306 19.7402 559.323 24.9038 560.117 34.7014H554.159C553.299 28.3462 549.724 25.0362 542.243 25.0362C535.557 25.0362 531.982 27.618 531.982 31.5238C531.982 37.8128 537.08 38.6734 544.031 40.3946ZM568.457 68V20.667H587.655C596.989 20.667 603.278 25.6982 603.278 34.1056C603.278 40.9242 600.034 44.6976 594.804 46.0216V46.154C605.33 48.2062 601.491 66.8084 603.94 67.6028V68H597.519C595.466 66.014 599.968 48.8682 587.986 48.8682H574.415V68H568.457ZM574.415 25.963V43.5722H586.265C591.163 43.5722 597.32 42.9764 597.32 34.7676C597.32 26.5588 591.163 25.963 586.265 25.963H574.415Z" fill="#273540"/>
<path d="M68.3423 41.5582C68.751 44.9091 70.549 48.6686 75.7796 48.6686C81.1737 48.6686 84.1976 44.0918 84.1976 36.2459C84.1976 28.4 81.2554 23.8232 75.7796 23.8232C70.549 23.8232 68.751 27.3375 68.3423 31.097L55.5109 31.097C56.1648 21.2078 63.6838 14.0157 75.6979 14.0157C88.9379 14.0158 97.2742 23.1693 97.2742 36.2459C97.2742 49.2407 88.9379 58.476 76.0248 58.476C63.8472 58.476 56.5734 51.2839 55.5109 41.5582L68.3423 41.5582Z" fill="#FF9D51"/>
<mask id="mask0_5_69" style="mask-type:alpha" maskUnits="userSpaceOnUse" x="55" y="30" width="43" height="46">
<path d="M68.3423 58.2348C68.751 61.5857 70.549 65.3452 75.7796 65.3452C81.1737 65.3452 84.1976 60.7684 84.1976 52.9225C84.1976 45.0766 81.2554 40.4998 75.7796 40.4998C70.549 40.4998 68.751 44.0141 68.3423 47.7736L55.5109 47.7736C56.1648 37.8845 63.6838 30.6924 75.6979 30.6924C88.9379 30.6924 97.2742 39.8459 97.2742 52.9225C97.2742 65.9173 88.9379 75.1526 76.0248 75.1526C63.8472 75.1526 56.5734 67.9605 55.5109 58.2348L68.3423 58.2348Z" fill="white"/>
</mask>
<g mask="url(#mask0_5_69)">
<path d="M56.9739 62.221H96.448V118.065H56.9739V62.221Z" fill="#FF9D51"/>
</g>
</svg>
